<?xml version="1.0" encoding="utf-8"?>
<!-- Generator: Adobe Illustrator 25.0.0, SVG Export Plug-In . SVG Version: 6.00 Build 0)  -->
<svg version="1.1" xmlns="http://www.w3.org/2000/svg" xmlns:xlink="http://www.w3.org/1999/xlink" x="0px" y="0px"
	 viewBox="0 0 30 30" style="enable-background:new 0 0 30 30;" xml:space="preserve">
<style type="text/css">
	.st0{fill:#4E525B;}
	.st1{fill:#444851;}
	.st2{display:none;}
	.st3{display:inline;}
	.st4{fill-rule:evenodd;clip-rule:evenodd;fill:#444851;}
</style>
<g id="facebook">
	<g>
		<path class="st0" d="M15,4.25c5.93,0,10.73,4.89,10.73,10.95c0,5.74-4.32,10.46-9.81,10.91c-0.3,0.06-0.61,0.06-0.91,0.06
			c-0.8,0-1.58-0.08-2.33-0.26c-4.82-1.1-8.43-5.49-8.43-10.71C4.24,9.15,9.07,4.25,15,4.25 M15,3.69C8.76,3.69,3.69,8.86,3.69,15.2
			c0,5.34,3.73,10.08,8.86,11.26c0.78,0.17,1.6,0.26,2.45,0.26c0.34,0,0.68,0,1.01-0.05c5.73-0.48,10.27-5.51,10.27-11.47
			C26.28,8.86,21.22,3.69,15,3.69L15,3.69z"/>
	</g>
	<g>
		<path class="st1" d="M16.22,12.91c0.17-0.2,0.5-0.34,0.97-0.34c0.44,0,0.97,0.07,1.47,0.21l0.42-2.3
			c-0.86-0.31-1.74-0.39-2.66-0.39c-0.92,0-1.64,0.14-2.22,0.49c-0.58,0.33-0.97,0.7-1.19,1.24c-0.22,0.49-0.33,1.3-0.33,2.32v0.9
			h-1.78v2.63h1.78v8.26c0.75,0.17,1.52,0.26,2.33,0.26c0.3,0,0.61,0,0.91-0.06v-8.46h2.36v-2.63h-2.36v-0.85
			C15.91,13.53,16,13.14,16.22,12.91z"/>
	</g>
</g>
<g id="twitter" class="st2">
	<g class="st3">
		<path class="st0" d="M14.44,4.04c5.93,0,10.74,4.9,10.74,10.96c0,6.05-4.81,10.96-10.74,10.96C8.5,25.96,3.7,21.05,3.7,15
			C3.7,8.94,8.5,4.04,14.44,4.04 M14.44,3.47C8.21,3.47,3.14,8.64,3.14,15s5.07,11.53,11.3,11.53c6.22,0,11.29-5.17,11.29-11.53
			S20.66,3.47,14.44,3.47L14.44,3.47z"/>
	</g>
	<g class="st3">
		<path class="st4" d="M7.94,19.46c1.02,0.07,2.01-0.09,2.94-0.52c0.42-0.19,0.8-0.42,1.18-0.73c-0.45-0.01-0.85-0.12-1.22-0.31
			c-0.63-0.33-1.08-0.84-1.35-1.54c-0.06-0.15-0.06-0.15,0.11-0.14c0.45,0.05,0.78,0.04,1.04-0.07c-0.25-0.09-0.48-0.13-0.67-0.26
			c-0.94-0.53-1.44-1.35-1.53-2.46c-0.01-0.13,0.03-0.14,0.14-0.09c0.33,0.19,0.69,0.27,1.11,0.31c-0.18-0.16-0.34-0.3-0.48-0.44
			c-0.78-0.86-0.97-2.22-0.45-3.26c0.07-0.14,0.1-0.14,0.19-0.03c1.32,1.55,2.95,2.48,4.93,2.8c0.2,0.04,0.42,0.04,0.63,0.09
			c0.14,0.02,0.15-0.05,0.13-0.15c-0.21-1.21,0.35-2.41,1.4-3.01c1.07-0.64,2.46-0.44,3.32,0.42c0.1,0.09,0.2,0.11,0.31,0.08
			c0.53-0.12,1.03-0.32,1.49-0.6c0.04-0.01,0.07-0.03,0.12-0.08c-0.2,0.68-0.6,1.19-1.19,1.59c0.55-0.05,1.04-0.22,1.52-0.4
			c0.01,0.07-0.04,0.11-0.07,0.16c-0.33,0.46-0.72,0.87-1.17,1.22c-0.09,0.07-0.11,0.12-0.11,0.23c0.03,2.12-0.63,3.99-1.95,5.63
			c-1.24,1.49-2.83,2.39-4.72,2.7c-2,0.32-3.89-0.02-5.62-1.11C7.98,19.48,7.95,19.46,7.94,19.46z"/>
	</g>
</g>
<g id="instagram" class="st2">
	<g class="st3">
		<path class="st0" d="M14.97,4.24c5.94,0,10.74,4.91,10.74,10.96c0,6.06-4.81,10.96-10.74,10.96c-5.93,0-10.74-4.9-10.74-10.96
			C4.24,9.16,9.05,4.24,14.97,4.24 M14.97,3.68c-6.23,0-11.29,5.17-11.29,11.53c0,6.36,5.06,11.53,11.29,11.53
			c6.23,0,11.29-5.17,11.29-11.53C26.27,8.85,21.2,3.68,14.97,3.68L14.97,3.68z"/>
	</g>
	<g class="st3">
		<path class="st4" d="M19.25,9.29c-2.84,0-5.7,0-8.54,0c-1.02,0-1.54,0.55-1.54,1.58c0,1.44,0,2.88,0,4.33c0,1.44,0,2.92,0,4.37
			c0,1,0.54,1.55,1.49,1.55c2.87,0,5.73,0,8.59,0c0.99,0,1.54-0.55,1.54-1.56c0-2.92,0-5.81,0-8.73
			C20.79,9.84,20.24,9.29,19.25,9.29z M18.31,10.63c1.15,0,1.15,0,1.15,1.17c0,1.14,0,1.14-1.13,1.14c-1.14,0-1.14,0-1.14-1.16
			C17.19,10.63,17.19,10.63,18.31,10.63z M14.99,12.91c1.21,0,2.25,1.07,2.23,2.3c-0.01,1.27-1.04,2.31-2.27,2.29
			c-1.22-0.02-2.25-1.08-2.22-2.31C12.75,13.94,13.77,12.91,14.99,12.91z M19.46,19.08c-0.01,0.55-0.15,0.71-0.69,0.71
			c-1.27,0-2.53,0-3.8,0c-1.26,0-2.52,0-3.79,0c-0.53,0-0.68-0.15-0.68-0.71c0-1.43,0.01-2.88-0.02-4.32c0-0.41,0.11-0.5,0.48-0.49
			c0.53,0.05,0.54,0.02,0.48,0.55c-0.21,1.82,1.04,3.61,2.8,3.96c1.82,0.35,3.64-0.76,4.15-2.54c0.15-0.56,0.2-1.15,0.08-1.7
			c-0.04-0.21,0.01-0.25,0.19-0.25c0.8-0.07,0.8-0.08,0.8,0.77C19.46,16.38,19.46,17.74,19.46,19.08z"/>
	</g>
</g>
</svg>
