<?xml version="1.0" encoding="utf-8"?>
<!-- Generator: Adobe Illustrator 25.0.0, SVG Export Plug-In . SVG Version: 6.00 Build 0)  -->
<svg version="1.1" id="OBJECTS" xmlns="http://www.w3.org/2000/svg" xmlns:xlink="http://www.w3.org/1999/xlink" x="0px" y="0px"
	 viewBox="0 0 230.55 277.28" style="enable-background:new 0 0 230.55 277.28;" xml:space="preserve">
<style type="text/css">
	.st0{fill:#2595FF;}
	.st1{fill:#DB7112;}
	.st2{fill:#FF8619;}
	.st3{fill:#238AED;}
</style>
<g>
	<path class="st0" d="M152.23,21.49c-0.46,2.31,0.58,4.94,9.51,9.96c0.3,0.17,0.6,0.34,0.9,0.5l0.55,6.68l-0.66-0.42
		c-0.27-0.17-0.63-0.09-0.8,0.18l-0.37,0.58c-0.17,0.27-0.09,0.63,0.18,0.8l1.84,1.15l0.55,6.75l-0.41-0.26
		c-0.27-0.17-0.63-0.09-0.8,0.18l-0.37,0.58c-0.17,0.27-0.09,0.63,0.18,0.8l1.58,0.99l0.44,5.41l3.84,2.41l2.8-21.25
		c4.83,2.53,9.58,4.94,12.91,6.61l0.36,7.03l2.55,1.6l1.79-6.77l2.15,0.49l-1.37-1.73l5.32-4.55l-2.55-1.6l-6.49,2.73
		c-2.95-2.27-7.18-5.51-11.56-8.76l17.92-11.76l-3.84-2.41l-5.07,1.95l-1.58-0.99c-0.27-0.17-0.63-0.09-0.8,0.18l-0.37,0.58
		c-0.17,0.27-0.09,0.63,0.18,0.8l0.41,0.26l-6.32,2.43l-1.84-1.15c-0.27-0.17-0.63-0.09-0.8,0.18l-0.37,0.58
		c-0.17,0.27-0.09,0.63,0.18,0.8l0.66,0.42l-6.26,2.41c-0.28-0.2-0.57-0.4-0.85-0.59c-8.4-5.87-11.22-5.65-13.1-4.24
		C152.36,21.17,152.26,21.32,152.23,21.49z"/>
	<path class="st1" d="M198.85,65.7c-0.22,6.92-2.63,14.18-7.85,20.4c-11.15,13.32-36.22,24.73-76.48,39.08
		c-42.82,15.25-88.18,30.97-90.76,62.95c-4.55-11.53-7.08-24.08-7.08-37.22c0-55.96,45.37-101.33,101.31-101.33
		c2.02,0,4,0.07,5.98,0.18c25.15,1.47,47.82,12.12,64.75,28.63C192.69,75.73,197.1,71.58,198.85,65.7z"/>
	<path class="st2" d="M97.54,263.33c-68.45-35.32-38.05-79.15,30.5-109.78C55.48,199.93,73.71,239.29,97.54,263.33z"/>
	<path class="st0" d="M180.81,106.73c-0.6,0.52-1.23,1.02-1.87,1.53c-39.98,33.18-94.03,45.78-121.93,77.33
		c-21.57,24.4-14.35,41.43-10.68,47.95c-21.27-18.52-20.55-48.57,12.63-69.08C92.14,143.96,134.99,133.7,180.81,106.73z"/>
	<path class="st2" d="M198.85,65.7c-0.22,6.92-2.63,14.18-7.85,20.4c-11.15,13.32-36.22,24.73-76.48,39.08
		c-42.82,15.25-88.18,30.97-90.76,62.95c-4.55-11.53-7.08-24.08-7.08-37.22c0-55.96,45.37-101.33,101.31-101.33
		c2.02,0,4,0.07,5.98,0.18c-45.52,0.08-89.25,43.4-84.76,86.81c12.33-37.03,103.3-31.97,149.51-58.18
		C192.69,75.73,197.1,71.58,198.85,65.7z"/>
	<path class="st0" d="M210.54,109.67c9.5-26.07,2.22-49.67-16.55-61.51c38.58,44.68-28.87,85.32-79.15,127.09
		c-26.16,21.73-30.61,57.77-3.48,71.61c8.27,4.22,17.83,5.17,26.93,3.31c46.22-9.4,81.01-50.27,81.01-99.27
		C219.31,136.22,216.17,122.27,210.54,109.67z"/>
	<path class="st3" d="M210.54,109.67c-14.42,34.72-82.57,80.21-90.59,97.06c-12.34,25.94,21.49,36.59,47.85,17.02
		c-49.98-2.98,42.05-44.81,50.99-83.11"/>
	<path class="st1" d="M97.54,263.33c-59.01-46.52-24.12-77.16,30.5-109.78C55.48,199.93,73.71,239.29,97.54,263.33z"/>
	<path class="st3" d="M178.94,108.26c-39.98,33.18-94.03,45.78-121.93,77.33c-21.57,24.4-14.35,41.43-10.68,47.95
		C0.56,166.13,132.09,145.58,178.94,108.26z"/>
</g>
</svg>
