<?xml version="1.0" encoding="utf-8"?>
<!-- Generator: Adobe Illustrator 25.0.0, SVG Export Plug-In . SVG Version: 6.00 Build 0)  -->
<svg version="1.1" xmlns="http://www.w3.org/2000/svg" xmlns:xlink="http://www.w3.org/1999/xlink" x="0px" y="0px"
	 viewBox="0 0 500 500" style="enable-background:new 0 0 500 500;" xml:space="preserve">
<style type="text/css">
	.st0{display:none;}
	.st1{display:inline;}
	.st2{fill:#272525;}
</style>
<g id="icon2" class="st0">
	<g id="XMLID_234_" class="st1">
		<path id="XMLID_64_" class="st2" d="M489.03,215.63h-147.8V86.07c0-4.68-3.79-8.48-8.48-8.48H174.01c-4.68,0-8.48,3.79-8.48,8.48
			v56.24H17.63c-4.68,0-8.48,3.8-8.48,8.48v258.83c0,4.68,3.79,8.48,8.48,8.48h156.38h158.64h0.1h156.28c4.68,0,8.48-3.8,8.48-8.48
			V224.1C497.51,219.42,493.71,215.63,489.03,215.63z M396.71,330.72h28.26v73.81h-28.26V330.72z M480.55,401.14h-45.41v-75.51
			c0-2.81-2.28-5.09-5.09-5.09h-38.43c-2.81,0-5.09,2.28-5.09,5.09v75.51h-45.41V232.58h139.43V401.14z M26.11,159.27h139.42v241.87
			h-45.41v-75.51c0-2.81-2.28-5.09-5.09-5.09H76.6c-2.81,0-5.09,2.28-5.09,5.09v75.51H26.11V159.27z M81.69,330.72h28.26v73.81
			H81.69V330.72z M324.17,224.1v177.04h-48.73v-75.51c0-2.81-2.28-5.09-5.09-5.09h-38.44c-2.81,0-5.09,2.28-5.09,5.09v75.51h-44.34
			V150.79V94.55h141.79v128.54C324.23,223.42,324.17,223.75,324.17,224.1z M237,404.53v-73.81h28.27v73.81H237z"/>
		<path id="XMLID_60_" class="st2" d="M244.12,126.72h-37.97c-2.81,0-5.09,2.28-5.09,5.09v37.97c0,2.81,2.28,5.09,5.09,5.09h37.97
			c2.81,0,5.09-2.28,5.09-5.09V131.8C249.21,129,246.93,126.72,244.12,126.72z M239.04,164.69h-27.8v-27.8h27.8V164.69z"/>
		<path id="XMLID_56_" class="st2" d="M301.77,126.72H263.8c-2.81,0-5.09,2.28-5.09,5.09v37.97c0,2.81,2.28,5.09,5.09,5.09h37.97
			c2.81,0,5.09-2.28,5.09-5.09V131.8C306.86,129,304.59,126.72,301.77,126.72z M296.69,164.69h-27.8v-27.8h27.8V164.69z"/>
		<path id="XMLID_52_" class="st2" d="M244.12,188.89h-37.97c-2.81,0-5.09,2.28-5.09,5.09v37.97c0,2.81,2.28,5.09,5.09,5.09h37.97
			c2.81,0,5.09-2.28,5.09-5.09v-37.97C249.21,191.17,246.93,188.89,244.12,188.89z M239.04,226.86h-27.8v-27.79h27.8V226.86z"/>
		<path id="XMLID_48_" class="st2" d="M301.77,188.89H263.8c-2.81,0-5.09,2.28-5.09,5.09v37.97c0,2.81,2.28,5.09,5.09,5.09h37.97
			c2.81,0,5.09-2.28,5.09-5.09v-37.97C306.86,191.17,304.59,188.89,301.77,188.89z M296.69,226.86h-27.8v-27.79h27.8V226.86z"/>
		<path id="XMLID_44_" class="st2" d="M244.12,251.06h-37.97c-2.81,0-5.09,2.28-5.09,5.09v37.97c0,2.81,2.28,5.09,5.09,5.09h37.97
			c2.81,0,5.09-2.28,5.09-5.09v-37.97C249.21,253.34,246.93,251.06,244.12,251.06z M239.04,289.04h-27.8v-27.8h27.8V289.04z"/>
		<path id="XMLID_40_" class="st2" d="M301.77,251.06H263.8c-2.81,0-5.09,2.28-5.09,5.09v37.97c0,2.81,2.28,5.09,5.09,5.09h37.97
			c2.81,0,5.09-2.28,5.09-5.09v-37.97C306.86,253.34,304.59,251.06,301.77,251.06z M296.69,289.04h-27.8v-27.8h27.8V289.04z"/>
		<path id="XMLID_36_" class="st2" d="M48.01,237.04h37.97c2.81,0,5.09-2.28,5.09-5.09v-37.97c0-2.81-2.28-5.09-5.09-5.09H48.01
			c-2.81,0-5.09,2.28-5.09,5.09v37.97C42.92,234.76,45.2,237.04,48.01,237.04z M53.1,199.07h27.79v27.79H53.1V199.07z"/>
		<path id="XMLID_32_" class="st2" d="M105.66,237.04h37.97c2.81,0,5.09-2.28,5.09-5.09v-37.97c0-2.81-2.27-5.09-5.09-5.09h-37.97
			c-2.81,0-5.09,2.28-5.09,5.09v37.97C100.57,234.76,102.85,237.04,105.66,237.04z M110.75,199.07h27.79v27.79h-27.79V199.07z"/>
		<path id="XMLID_28_" class="st2" d="M85.98,299.21c2.81,0,5.09-2.28,5.09-5.09v-37.97c0-2.81-2.28-5.09-5.09-5.09H48.01
			c-2.81,0-5.09,2.28-5.09,5.09v37.97c0,2.81,2.28,5.09,5.09,5.09H85.98z M53.1,261.24h27.79v27.8H53.1V261.24z"/>
		<path id="XMLID_24_" class="st2" d="M105.66,299.21h37.97c2.81,0,5.09-2.28,5.09-5.09v-37.97c0-2.81-2.27-5.09-5.09-5.09h-37.97
			c-2.81,0-5.09,2.28-5.09,5.09v37.97C100.57,296.93,102.85,299.21,105.66,299.21z M110.75,261.24h27.79v27.8h-27.79V261.24z"/>
		<path id="XMLID_20_" class="st2" d="M363.03,299.21H401c2.81,0,5.09-2.28,5.09-5.09v-37.97c0-2.81-2.28-5.09-5.09-5.09h-37.97
			c-2.81,0-5.09,2.28-5.09,5.09v37.97C357.94,296.93,360.22,299.21,363.03,299.21z M368.11,261.24h27.8v27.8h-27.8V261.24z"/>
		<path id="XMLID_16_" class="st2" d="M420.68,299.21h37.97c2.81,0,5.09-2.28,5.09-5.09v-37.97c0-2.81-2.28-5.09-5.09-5.09h-37.97
			c-2.81,0-5.09,2.28-5.09,5.09v37.97C415.59,296.93,417.87,299.21,420.68,299.21z M425.76,261.24h27.8v27.8h-27.8V261.24z"/>
	</g>
</g>
<g id="icon1">
	<g id="XMLID_182_">
		<path id="XMLID_332_" class="st2" d="M356.68,200.92c2.06-8.51,3.11-17.24,3.11-25.96c0-60.54-49.25-109.79-109.79-109.79
			c-60.54,0-109.79,49.25-109.79,109.79c0,8.72,1.05,17.46,3.11,25.96c2.94,17.8,6.97,32.17,11.98,42.71
			c10.79,22.66,56.19,97.47,77.04,131.55c-28.18,3.59-41.26,15.71-41.26,27.13c0,13.59,18.44,28.22,58.92,28.22
			c40.48,0,58.92-14.63,58.92-28.22c0-11.42-13.08-23.54-41.26-27.13c20.84-34.08,66.25-108.89,77.04-131.55
			C349.71,233.09,353.74,218.72,356.68,200.92z M291.94,402.31c-1.15,3.21-15.32,11.26-41.94,11.26c-26.93,0-41.13-8.24-41.97-11.16
			c0.76-2.82,12.33-9.73,34.2-11.11c0.26,0.41,0.45,0.73,0.55,0.9c1.54,2.5,4.27,4.03,7.22,4.03c2.94,0,5.67-1.53,7.22-4.03
			c0.1-0.17,0.3-0.48,0.55-0.9C279.35,392.66,290.91,399.42,291.94,402.31z M170.61,236.34c-4.29-9.03-7.96-22.34-10.61-38.49
			c-0.04-0.22-0.08-0.44-0.13-0.66c-1.79-7.28-2.7-14.77-2.7-22.24c0-51.19,41.65-92.84,92.84-92.84
			c51.19,0,92.83,41.65,92.83,92.84c0,7.47-0.91,14.95-2.7,22.24c-0.05,0.21-0.1,0.44-0.13,0.66c-2.65,16.15-6.32,29.46-10.61,38.49
			c-10.9,22.88-60.6,104.52-79.39,135.2C231.21,340.86,181.51,259.22,170.61,236.34z"/>
		<path id="XMLID_328_" class="st2" d="M250,112.87c-32.49,0-58.92,26.43-58.92,58.92c0,32.49,26.43,58.92,58.92,58.92
			c32.49,0,58.92-26.43,58.92-58.92C308.92,139.3,282.49,112.87,250,112.87z M208.04,171.79c0-23.14,18.82-41.97,41.96-41.97
			c23.14,0,41.96,18.83,41.96,41.97c0,23.14-18.82,41.96-41.96,41.96C226.86,213.76,208.04,194.93,208.04,171.79z"/>
	</g>
</g>
<g id="icon3" class="st0">
	<g id="XMLID_217_" class="st1">
		<path id="XMLID_199_" class="st2" d="M286.91,293.57L407.06,356c3.46,1.79,7.68,1.01,10.26-1.91c2.58-2.91,2.84-7.21,0.64-10.42
			l-28.07-40.87c0.72-0.9,1.35-1.87,1.9-2.92l5.97-11.48c2.19-4.2,2.6-9,1.17-13.52c-1.43-4.52-4.53-8.21-8.73-10.39
			c-4.2-2.19-9.01-2.61-13.52-1.17c-3.8,1.2-6.96,3.64-9.19,6.88l-12.51-18.21l4.91-9.44c2.18-4.2,2.6-9,1.17-13.52
			c-1.43-4.52-4.53-8.21-8.73-10.39c-4.2-2.19-9.01-2.6-13.52-1.18c-2.04,0.65-3.88,1.67-5.52,2.95l-3.72-5.42
			c32.51-67.24,53.75-143.48,29.96-155.85c-23.88-12.39-77.72,48.13-114.43,113.76l-9.27,0.1c0.32-2.52,0.15-5.09-0.64-7.58
			c-1.43-4.52-4.53-8.21-8.73-10.39c-4.21-2.18-9.01-2.61-13.52-1.17c-4.52,1.43-8.21,4.53-10.39,8.73l-5.62,10.81l-21.94,0.23
			c4.01-8.55,0.63-18.84-7.83-23.24c-4.2-2.19-9-2.61-13.52-1.17c-4.52,1.43-8.21,4.53-10.39,8.73l-5.97,11.48
			c-0.76,1.47-1.23,3.03-1.56,4.61l-46.76,0.49c-3.89,0.04-7.26,2.73-8.16,6.51c-0.9,3.79,0.89,7.7,4.34,9.49l120.18,62.45
			c-10.87,26.56-15.16,52.13-18.67,73.01c-1.2,7.14-2.35,13.97-3.64,20.12L120.07,366c-4.07,1.28-6.55,5.4-5.78,9.59
			c0.76,4.2,4.55,7.14,8.78,6.96c0.59-0.04,60.23-2.42,108.3,56.8c1.66,2.04,4.1,3.13,6.59,3.13c1.37,0,2.74-0.33,4.01-1.01
			c3.59-1.93,5.3-6.14,4.07-10.02l-19.85-62.78c2.2-2.42,4.52-4.96,6.95-7.6C248.57,344.26,269.28,321.69,286.91,293.57z
			 M160.15,371.12l32.62-10.31c2.83-0.9,4.99-3.22,5.69-6.11c1.88-7.84,3.35-16.61,4.9-25.89c3.86-22.98,8.24-49.03,20.57-76.2
			c1.87-4.1,0.19-8.95-3.81-11.03l-97.06-50.44l18.31-0.19c1.05,0.91,2.18,1.75,3.45,2.41c2.56,1.33,5.34,2.01,8.15,2.01
			c1.8,0,3.6-0.27,5.37-0.83c2.49-0.79,4.68-2.12,6.56-3.83l31.67-0.33c1.62,3.15,4.17,5.86,7.54,7.62
			c2.56,1.33,5.35,2.01,8.15,2.01c1.8,0,3.6-0.27,5.37-0.83c4.52-1.43,8.21-4.53,10.39-8.73l0.2-0.39l21.97-0.23
			c3.07-0.03,5.88-1.72,7.35-4.42c40.21-73.69,82.99-110.25,94-111c4.56,8.44-0.24,58.32-39.4,137.57
			c-1.36,2.75-1.13,6.02,0.61,8.56l10.58,15.4l-0.92,1.77c-2.18,4.2-2.6,9-1.18,13.52c1.43,4.52,4.53,8.21,8.73,10.39
			c2.61,1.35,5.4,2,8.15,2c1.32,0,2.62-0.19,3.9-0.47l16.82,24.47c-0.75,3.1-0.7,6.35,0.28,9.47c1.43,4.52,4.52,8.2,8.73,10.39
			c1.87,0.97,3.86,1.59,5.89,1.85l11,16.01l-97.07-50.44c-4-2.08-8.93-0.66-11.22,3.22c-17.55,29.8-38.77,52.93-55.83,71.52
			c-3.71,4.04-7.19,7.83-10.34,11.37c-1.98,2.23-2.64,5.34-1.74,8.19l10.65,33.68C198.31,385.39,177.28,376.07,160.15,371.12z
			 M149.3,175.69l5.97-11.48c0.74-1.43,2.2-2.24,3.71-2.24c0.65,0,1.3,0.15,1.91,0.47c2.03,1.06,2.84,3.58,1.78,5.62l-5.97,11.48
			c0,0,0,0,0,0c-0.51,0.99-1.38,1.72-2.44,2.05c-1.06,0.33-2.19,0.23-3.17-0.28c-0.99-0.51-1.72-1.38-2.06-2.44
			C148.69,177.81,148.78,176.68,149.3,175.69z M214.56,168.84c0.75-1.43,2.2-2.24,3.71-2.24c0.64,0,1.3,0.15,1.91,0.47
			c0.99,0.51,1.72,1.38,2.05,2.44c0.34,1.06,0.24,2.19-0.27,3.18L216,184.17c-0.52,0.99-1.38,1.72-2.45,2.05
			c-1.06,0.33-2.19,0.24-3.18-0.27c-2.04-1.06-2.84-3.58-1.78-5.62L214.56,168.84z M342.87,230.39c0.41-0.13,0.84-0.2,1.26-0.2
			c0.66,0,1.31,0.16,1.92,0.47c0.99,0.51,1.72,1.38,2.05,2.44c0.33,1.06,0.24,2.19-0.27,3.18l-5.97,11.48
			c-1.07,2.04-3.59,2.83-5.62,1.78c-2.04-1.06-2.84-3.58-1.78-5.62c0,0,0,0,0,0l5.96-11.48
			C340.94,231.45,341.81,230.73,342.87,230.39z M372.34,289.78l5.97-11.48c0.51-0.99,1.38-1.72,2.45-2.05
			c1.06-0.33,2.18-0.23,3.17,0.28c0.99,0.51,1.72,1.38,2.06,2.44c0.33,1.06,0.24,2.19-0.28,3.18l-5.97,11.49
			c-0.51,0.99-1.38,1.71-2.44,2.05c-1.06,0.33-2.19,0.23-3.18-0.27c-0.99-0.51-1.71-1.38-2.05-2.44
			C371.73,291.9,371.83,290.77,372.34,289.78z"/>
	</g>
</g>
</svg>
